<?xml version="1.0" standalone="no"?>
<!DOCTYPE svg PUBLIC "-//W3C//DTD SVG 20010904//EN"
 "http://www.w3.org/TR/2001/REC-SVG-20010904/DTD/svg10.dtd">
<svg version="1.0" xmlns="http://www.w3.org/2000/svg"
 width="1024.000000pt" height="1024.000000pt" viewBox="0 0 1024.000000 1024.000000"
 preserveAspectRatio="xMidYMid meet">

<g transform="translate(0.000000,1024.000000) scale(0.100000,-0.100000)"
fill="#000000" stroke="none">
<path d="M5061 9089 c-251 -49 -446 -226 -507 -460 -26 -96 -24 -227 5 -319
28 -93 70 -173 116 -223 l35 -38 0 -120 0 -119 -29 0 c-33 0 -71 -39 -71 -74
0 -32 36 -85 62 -91 13 -3 242 -4 510 -3 l486 3 26 24 c30 28 42 72 26 100
-13 25 -59 49 -82 44 -16 -4 -18 6 -18 118 l0 122 34 37 c112 124 168 333 132
498 -27 128 -76 215 -180 317 -70 69 -109 99 -167 128 -122 60 -258 80 -378
56z m251 -198 c181 -63 308 -234 308 -415 0 -120 -59 -256 -133 -306 l-37 -25
0 -162 0 -163 -97 0 -98 0 -3 161 c-5 193 0 229 30 229 42 0 104 39 126 79 20
36 22 52 22 215 l0 176 -80 0 -80 0 0 -150 0 -150 -105 0 -105 0 0 150 0 150
-75 0 -75 0 0 -178 c0 -153 2 -182 19 -212 21 -40 83 -80 124 -80 l27 0 0
-200 0 -200 -95 0 -95 0 -1 93 c-4 239 -4 236 -43 269 -110 90 -161 259 -122
403 44 165 184 301 346 335 64 13 175 5 242 -19z"/>
<path d="M1275 9015 c-54 -19 -119 -92 -134 -149 -16 -64 -16 -1633 0 -1687
16 -52 61 -103 112 -128 43 -21 54 -21 756 -21 778 0 755 -2 780 58 13 31 4
69 -21 90 -11 8 -195 12 -710 14 l-696 3 -25 23 c-14 13 -28 35 -31 48 -8 32
17 89 46 106 18 10 163 14 705 18 l683 5 27 28 28 27 0 750 0 749 -29 30 c-17
17 -46 36 -65 41 -22 6 -296 10 -711 10 -553 -1 -682 -3 -715 -15z m1355 -810
l0 -645 -520 0 -520 0 0 645 0 645 520 0 520 0 0 -645z"/>
<path d="M1750 8615 l0 -65 360 0 360 0 0 65 0 65 -360 0 -360 0 0 -65z"/>
<path d="M1750 8335 l0 -65 360 0 360 0 0 65 0 65 -360 0 -360 0 0 -65z"/>
<path d="M1750 8055 l0 -65 360 0 360 0 0 65 0 65 -360 0 -360 0 0 -65z"/>
<path d="M3878 8928 c-2 -55 -1 -102 1 -104 2 -2 53 -4 113 -4 l108 0 0 -95 0
-95 -175 0 -175 0 0 84 c0 47 -4 96 -9 109 -17 44 -46 48 -360 45 l-293 -3
-29 -33 -29 -32 0 -841 c0 -767 1 -843 17 -869 9 -16 27 -33 40 -39 31 -14
1090 -15 1127 -1 14 5 33 21 43 37 17 26 18 76 16 946 -1 835 -3 920 -18 943
-29 45 -72 55 -230 53 l-144 -1 -3 -100z m222 -528 l0 -80 -47 0 c-27 0 -105
3 -175 7 l-128 6 0 74 0 73 175 0 175 0 0 -80z m-530 -100 l0 -100 -185 0
-185 0 0 100 0 100 185 0 185 0 0 -100z m430 -280 l0 -160 -125 0 -125 0 0
160 0 160 125 0 125 0 0 -160z m-658 8 c2 -6 1 -39 -3 -72 -4 -34 -7 -135 -8
-226 0 -91 0 -168 -1 -172 0 -5 -27 -8 -60 -8 l-60 0 0 245 0 245 64 0 c40 0
66 -4 68 -12z m758 -409 l0 -72 -46 7 c-26 3 -105 6 -175 6 l-129 0 0 65 0 65
175 0 175 0 0 -71z"/>
<path d="M7588 9021 c-51 -7 -89 -31 -122 -75 -21 -27 -21 -36 -24 -897 -2
-788 -1 -872 14 -902 23 -45 53 -76 96 -98 35 -18 67 -19 658 -19 407 0 628 4
641 10 25 14 51 66 44 89 -3 10 -15 27 -28 39 -22 21 -27 21 -616 24 l-593 3
-24 28 c-28 33 -32 82 -8 115 37 53 30 52 634 52 l560 0 0 -55 0 -55 95 0 95
0 0 58 c0 50 3 60 30 85 l30 29 0 704 c0 762 2 735 -55 802 -57 68 -47 67
-497 70 l-408 3 0 -90 0 -90 385 0 c213 0 390 -3 396 -7 5 -3 8 -24 6 -47 l-4
-42 -491 -3 c-271 -1 -492 -1 -493 0 0 2 -3 59 -5 128 -3 69 -7 131 -9 138 -5
13 -217 15 -307 3z m144 -211 c2 -23 1 -45 -3 -51 -3 -6 -32 -9 -65 -7 l-59 3
1 39 c2 46 15 56 75 56 l47 0 4 -40z m-2 -597 l0 -388 -60 -2 -60 -1 0 383 0
384 58 4 c31 2 58 4 60 5 1 1 2 -172 2 -385z m860 -3 l0 -390 -345 0 -345 0 0
390 0 390 345 0 345 0 0 -390z m177 288 c-2 -18 -4 -6 -4 27 0 33 2 48 4 33 2
-15 2 -42 0 -60z"/>
<path d="M8315 8489 c-49 -28 -59 -78 -24 -123 42 -54 139 -18 139 52 0 51
-71 95 -115 71z"/>
<path d="M8074 8452 c-29 -19 -33 -54 -31 -266 2 -203 3 -219 21 -232 15 -11
56 -14 172 -14 l153 0 20 26 c26 33 27 65 4 93 -16 18 -30 21 -123 23 l-105 3
-3 170 c-2 159 -3 171 -23 188 -22 17 -65 22 -85 9z"/>
<path d="M6184 8986 l-34 -34 0 -927 0 -927 29 -29 29 -29 461 0 461 0 32 29
33 29 3 927 2 927 -34 34 -34 34 -457 0 -457 0 -34 -34z m846 -241 l0 -95
-349 0 -348 0 -7 46 c-8 61 -8 129 1 137 3 4 163 7 355 7 l348 0 0 -95z m-297
-245 l297 0 0 -39 c0 -23 -5 -41 -13 -44 -8 -3 -162 -3 -343 -1 -181 2 -332 4
-336 4 -5 0 -8 21 -8 46 l0 47 53 -7 c28 -3 186 -6 350 -6z m297 -410 l0 -70
-322 -1 c-178 0 -334 -2 -347 -5 -33 -6 -41 10 -41 84 l0 62 355 0 355 0 0
-70z m0 -445 l0 -95 -352 2 -353 3 -3 93 -3 92 356 0 355 0 0 -95z m0 -289 c0
-34 -4 -45 -17 -47 -10 -2 -168 -3 -350 -1 l-333 3 0 45 0 44 350 0 350 0 0
-44z"/>
<path d="M4635 7484 c-16 -17 -25 -39 -25 -59 0 -20 9 -42 25 -59 l24 -26 503
0 c461 0 505 2 524 18 49 39 52 84 11 130 l-20 22 -509 0 -509 0 -24 -26z"/>
<path d="M4639 7191 c-31 -31 -38 -75 -19 -111 19 -36 71 -40 566 -40 l481 0
27 25 c14 13 26 32 27 42 3 43 -4 69 -22 88 -19 19 -35 20 -525 23 l-505 3
-30 -30z"/>
<path d="M6002 6899 c-25 -9 -42 -39 -42 -73 0 -27 41 -66 70 -66 10 0 29 9
44 21 62 49 4 146 -72 118z"/>
<path d="M3359 6876 c-82 -33 -122 -61 -175 -119 -68 -75 -112 -173 -125 -280
-7 -58 -9 -501 -7 -1359 l4 -1273 25 -71 c49 -135 135 -236 248 -291 l56 -28
558 -3 c437 -2 558 -5 554 -15 -2 -7 -15 -49 -28 -95 l-24 -82 -68 0 c-42 0
-82 -6 -102 -15 -59 -29 -76 -99 -33 -141 l24 -25 859 1 c855 0 859 0 881 21
31 29 37 63 19 99 -22 43 -63 60 -143 60 l-70 0 -21 78 c-12 43 -21 86 -21 95
0 15 46 17 548 19 l547 3 58 27 c76 36 175 135 216 216 63 126 61 61 61 1473
0 880 -3 1304 -11 1345 -26 144 -126 277 -257 341 l-76 38 -194 3 c-138 2
-198 0 -208 -9 -10 -8 -14 -36 -14 -100 l0 -89 -222 -1 c-123 0 -253 -1 -291
-2 l-67 -2 0 83 c0 131 20 122 -261 122 l-240 0 -60 -127 c-33 -71 -71 -149
-85 -175 l-25 -48 771 0 c861 0 817 3 858 -69 20 -35 22 -53 22 -197 0 -88 -3
-196 -6 -241 l-7 -81 -66 -4 c-36 -2 -68 -2 -71 0 -3 2 -5 79 -5 170 0 185 -4
200 -63 228 -28 13 -102 15 -595 11 -610 -3 -588 -2 -706 -62 -52 -26 -137
-102 -176 -158 l-20 -28 -45 61 c-50 70 -126 129 -209 162 l-56 23 -593 0
-594 0 -29 -33 -29 -32 0 -170 0 -170 -75 0 -75 0 0 240 c0 221 2 244 20 280
11 22 30 45 43 52 13 8 74 15 157 18 l135 5 0 85 0 85 83 3 82 3 0 -91 0 -90
538 2 537 3 37 75 c20 41 57 119 82 173 l45 97 -882 0 -882 0 -56 -24z m1421
-687 c28 -6 69 -25 93 -43 36 -27 42 -38 45 -74 3 -41 -4 -51 -23 -33 -6 5
-34 16 -64 25 -47 14 -128 16 -568 16 l-513 0 0 53 c0 30 3 57 7 60 11 12 967
8 1023 -4z m1720 -49 l0 -59 -532 -3 c-525 -3 -534 -3 -580 -25 l-48 -22 0 41
c0 31 6 46 29 67 62 58 78 60 629 60 l502 1 0 -60z m-1672 -224 c56 -24 92
-68 92 -112 0 -39 -1 -40 -43 -16 -29 15 -83 17 -577 22 l-545 5 -3 49 c-5 85
-53 78 520 74 472 -3 516 -5 556 -22z m1672 -41 l0 -65 -527 0 c-504 0 -530
-1 -572 -20 -24 -11 -49 -20 -57 -20 -15 0 -19 45 -8 75 9 23 87 74 131 84 21
5 262 9 536 10 l497 1 0 -65z m252 -296 c44 3 50 1 45 -13 -4 -10 -3 -15 2
-11 5 3 12 -1 15 -7 3 -7 3 -3 1 9 -3 12 -1 24 5 28 6 4 10 -16 10 -58 l0 -64
-70 -2 -70 -2 2 143 c1 97 3 116 5 58 l4 -85 51 4z m-1912 67 c60 -32 80 -56
80 -96 0 -20 -3 -39 -6 -43 -4 -3 -25 4 -48 16 -41 22 -46 22 -578 25 l-538 3
0 53 c0 29 3 56 7 60 4 4 241 6 528 4 485 -3 522 -4 555 -22z m1660 -36 l0
-59 -527 -3 c-514 -3 -529 -4 -580 -25 l-53 -21 0 43 c0 64 47 98 160 118 14
2 244 5 513 6 l487 1 0 -60z m-3039 -30 c10 0 19 -4 19 -10 0 -5 9 -10 20 -10
20 0 26 -17 22 -62 -1 -10 3 -18 8 -18 6 0 10 -4 10 -10 0 -5 -25 -10 -55 -10
l-55 0 2 103 c1 56 3 83 5 60 3 -35 8 -43 24 -43z m1352 -194 c20 -8 53 -26
72 -40 29 -23 35 -33 35 -65 0 -21 -2 -40 -6 -43 -3 -3 -24 4 -47 16 -41 20
-56 21 -577 26 l-535 5 -3 58 -3 57 513 0 c402 -1 521 -4 551 -14z m1687 -46
l0 -59 -537 -3 c-538 -3 -538 -3 -580 -26 l-43 -22 0 43 c0 56 38 93 119 118
14 4 254 8 534 8 l507 1 0 -60z m-1680 -219 c19 -8 50 -27 68 -44 25 -25 32
-39 32 -70 0 -34 -3 -38 -17 -32 -104 45 -90 44 -635 45 l-518 0 0 53 c0 30 3
57 7 61 4 4 237 6 518 4 400 -3 518 -6 545 -17z m1680 -41 l0 -60 -512 0
c-489 -1 -516 -2 -568 -21 -94 -34 -90 -34 -90 -6 0 66 55 119 141 136 24 5
266 9 537 10 l492 1 0 -60z m-1694 -220 c23 -7 58 -25 78 -42 31 -25 37 -36
34 -62 -3 -35 -4 -35 -88 -11 -35 10 -97 15 -177 15 -193 0 -708 -39 -864 -66
l-36 -6 -2 90 -2 91 28 4 c62 11 988 -1 1029 -13z m1694 -76 l0 -96 -32 6
c-174 31 -537 58 -808 60 -198 1 -219 -1 -267 -20 -55 -23 -63 -22 -63 8 0 36
31 78 73 100 55 29 158 34 690 36 l407 2 0 -96z m508 -813 c-8 -167 -52 -248
-170 -312 l-63 -34 -1650 0 -1650 0 -57 28 c-118 58 -168 154 -168 322 l0 105
1881 0 1882 0 -5 -109z"/>
<path d="M5059 3977 c-18 -12 -39 -34 -46 -47 -33 -64 0 -149 70 -183 31 -16
43 -17 71 -7 37 12 90 64 101 100 11 35 -3 86 -33 115 -50 51 -109 59 -163 22z"/>
<path d="M6220 6880 c-27 -27 -26 -71 3 -98 30 -29 62 -28 92 3 33 32 32 68
-1 94 -34 26 -68 27 -94 1z"/>
<path d="M1189 6717 c-19 -13 -39 -37 -46 -57 -9 -26 -12 -217 -12 -723 -1
-758 -3 -738 61 -777 32 -20 48 -20 789 -20 l756 0 26 26 c15 14 29 40 32 58
3 17 5 349 3 738 l-3 708 -33 32 -32 33 -753 3 -753 2 -35 -23z m1151 -629 l0
-473 -275 5 c-242 4 -275 3 -275 -10 0 -9 -7 -26 -16 -38 -12 -17 -25 -22 -63
-22 l-48 0 -2 -52 c-1 -29 -7 -56 -14 -60 -27 -18 -62 -21 -86 -7 -22 12 -26
23 -29 68 l-3 53 -34 -6 c-44 -9 -74 7 -87 44 -8 25 -16 29 -51 32 l-42 3 -3
468 -2 467 515 0 515 0 0 -472z m-987 -765 c-7 -2 -19 -2 -25 0 -7 3 -2 5 12
5 14 0 19 -2 13 -5z"/>
<path d="M1456 6414 c-14 -13 -16 -47 -16 -218 0 -184 2 -204 18 -219 17 -15
58 -17 380 -17 l362 0 0 75 0 75 -300 0 -300 0 0 85 0 85 303 2 302 3 3 52 c6
100 33 93 -378 93 -313 0 -361 -2 -374 -16z"/>
<path d="M7500 6722 c-19 -9 -40 -28 -47 -42 -10 -19 -13 -191 -13 -752 l0
-727 24 -28 24 -28 744 -2 c582 -2 748 0 768 10 13 7 35 28 47 46 l23 34 0
709 c0 614 -2 713 -15 738 -32 62 -4 60 -797 60 -668 0 -726 -1 -758 -18z
m1064 -158 c14 -5 16 -32 17 -188 l1 -181 39 -34 40 -34 39 38 40 39 2 180 3
181 75 0 75 0 3 -627 2 -628 -645 0 -645 0 0 630 0 630 469 0 c258 0 476 -3
485 -6z"/>
<path d="M7823 6460 c-12 -5 -26 -18 -32 -29 -7 -13 -11 -148 -11 -393 l0
-374 35 -34 34 -33 40 34 39 34 1 367 c1 255 -2 375 -10 392 -7 14 -25 30 -42
36 -16 5 -30 10 -31 9 -1 0 -11 -4 -23 -9z"/>
<path d="M8219 6459 c-45 -17 -49 -42 -49 -312 l0 -253 39 -38 40 -39 38 39
38 39 -3 268 -3 268 -32 19 c-36 22 -33 22 -68 9z"/>
<path d="M8585 6032 c-3 -3 -5 -38 -5 -79 0 -70 1 -75 33 -103 17 -16 37 -29
42 -29 6 0 27 15 48 34 36 34 37 37 37 105 l0 70 -52 1 c-29 1 -63 3 -75 4
-12 1 -25 0 -28 -3z"/>
<path d="M8116 5761 l-29 -30 79 -74 79 -75 35 31 c19 17 57 50 84 74 l49 44
-28 29 c-16 17 -34 30 -40 30 -6 0 -26 -16 -45 -35 -19 -19 -39 -35 -46 -35
-6 0 -31 16 -55 35 -24 19 -47 35 -50 35 -3 0 -18 -13 -33 -29z"/>
<path d="M8521 5758 l-30 -32 76 -71 c42 -38 79 -70 83 -70 3 0 41 32 83 70
l77 70 -29 35 -28 35 -46 -38 c-50 -40 -68 -45 -87 -22 -7 9 -26 25 -41 36
l-28 19 -30 -32z"/>
<path d="M7928 5585 c-25 -18 -49 -39 -53 -44 -11 -19 -31 -12 -78 29 -25 22
-50 40 -55 40 -15 0 -52 -50 -52 -69 0 -23 157 -164 172 -155 33 20 158 138
158 150 0 17 -32 84 -39 84 -3 0 -27 -16 -53 -35z"/>
<path d="M8305 5555 c-27 -25 -53 -45 -56 -45 -3 0 -27 18 -52 40 -53 47 -68
49 -97 13 l-21 -27 78 -78 c43 -43 81 -78 86 -78 12 0 164 132 171 148 7 16
-30 72 -47 72 -7 -1 -34 -21 -62 -45z"/>
<path d="M8713 5555 c-28 -25 -56 -45 -62 -45 -6 0 -32 19 -57 42 l-45 41 -30
-29 c-16 -15 -28 -33 -27 -39 4 -16 144 -145 157 -145 18 0 161 141 161 160 0
9 -10 26 -23 38 l-23 22 -51 -45z"/>
<path d="M1201 4753 c-22 -11 -40 -31 -52 -57 -17 -38 -19 -79 -19 -616 0
-350 4 -589 10 -611 6 -19 22 -46 36 -60 24 -22 35 -24 157 -29 l132 -5 0 -35
c1 -34 7 -39 135 -128 81 -56 136 -88 138 -80 2 10 -43 136 -83 231 -7 16 22
17 528 17 364 0 544 3 560 11 13 6 31 23 40 39 15 25 17 87 17 645 0 558 -2
620 -17 645 -9 16 -27 33 -40 39 -17 8 -253 11 -766 11 -672 0 -745 -2 -776
-17z m1429 -678 l0 -525 -660 0 -660 0 0 525 0 525 660 0 660 0 0 -525z"/>
<path d="M1470 4375 l0 -75 130 0 130 0 0 38 c0 20 3 54 6 75 l7 37 -137 0
-136 0 0 -75z"/>
<path d="M2220 4375 l0 -75 130 0 130 0 0 75 0 75 -130 0 -130 0 0 -75z"/>
<path d="M1840 4220 l0 -70 140 0 140 0 0 70 0 70 -140 0 -140 0 0 -70z"/>
<path d="M1481 4142 c-7 -2 -11 -30 -11 -73 l0 -69 130 0 130 0 0 70 0 70 -42
1 c-24 0 -77 1 -119 3 -42 1 -81 0 -88 -2z"/>
<path d="M2220 4067 c0 -68 2 -78 16 -73 9 3 67 6 130 6 l115 0 -3 71 -3 71
-127 2 -128 2 0 -79z"/>
<path d="M1840 3930 l0 -70 140 0 140 0 0 70 0 70 -140 0 -140 0 0 -70z"/>
<path d="M1460 3770 l0 -70 135 0 135 0 0 70 0 70 -135 0 -135 0 0 -70z"/>
<path d="M2220 3771 c0 -39 5 -73 11 -76 6 -4 64 -4 130 0 l119 7 0 69 0 69
-130 0 -130 0 0 -69z"/>
<path d="M7488 4754 c-15 -8 -32 -23 -38 -34 -6 -12 -10 -238 -10 -650 l0
-632 29 -29 29 -29 750 0 c741 0 750 0 775 21 15 11 31 37 37 57 8 25 10 232
8 645 l-3 609 -33 29 -32 29 -743 0 c-635 -1 -746 -3 -769 -16z m644 -246 l3
-93 100 0 100 0 3 93 3 92 279 0 280 0 0 -525 0 -525 -277 2 -278 3 -3 98 -3
98 -102 -3 -102 -3 -3 -97 -3 -98 -259 0 -260 0 0 525 0 525 260 0 259 0 3
-92z"/>
<path d="M7730 4075 l0 -385 130 0 130 0 0 80 0 80 -55 0 -55 0 0 230 0 230
55 0 55 0 0 75 0 75 -130 0 -130 0 0 -385z"/>
<path d="M8500 4386 l0 -75 51 -3 52 -3 3 -227 3 -228 -54 0 -55 0 0 -80 0
-81 126 3 126 3 -1 380 -1 380 -125 3 -125 3 0 -75z"/>
<path d="M8104 4277 c-11 -12 -28 -32 -38 -44 l-18 -22 93 -61 c52 -34 95 -65
96 -68 1 -4 -36 -31 -83 -61 -47 -30 -88 -60 -91 -68 -3 -8 9 -29 27 -48 l33
-35 36 22 c75 45 280 183 281 190 0 5 -250 178 -306 211 -6 3 -20 -4 -30 -16z"/>
<path d="M3305 3152 c-81 -38 -133 -127 -121 -205 19 -115 131 -188 244 -157
58 15 127 82 142 138 13 49 7 89 -21 144 -41 81 -160 120 -244 80z m103 -138
c42 -29 19 -94 -33 -94 -33 0 -60 41 -46 69 10 18 37 40 51 41 3 0 16 -7 28
-16z"/>
<path d="M2424 3099 c-25 -26 -29 -38 -29 -83 l0 -53 -552 -5 -551 -4 -48 -30
c-30 -18 -60 -48 -79 -78 l-30 -49 -3 -691 c-3 -768 -4 -750 64 -820 67 -69
27 -66 841 -66 802 0 773 -2 836 58 16 15 39 45 50 67 22 40 22 42 22 740 l0
700 -27 45 c-37 63 -63 85 -233 199 -129 87 -155 101 -190 101 -33 0 -47 -6
-71 -31z m334 -1006 l-3 -698 -700 -3 c-385 -1 -710 0 -722 3 l-23 5 0 689 c0
378 3 691 7 694 3 4 330 7 725 7 l718 0 -2 -697z"/>
<path d="M1464 2641 c-2 -2 -4 -33 -4 -68 l0 -63 49 0 c27 0 63 -3 80 -6 28
-6 31 -10 31 -41 0 -30 -8 -43 -57 -87 -31 -28 -75 -67 -97 -87 l-40 -36 35
-41 c19 -23 39 -42 44 -42 20 0 175 130 200 168 57 86 55 198 -5 265 -28 31
-31 32 -130 37 -56 3 -104 3 -106 1z"/>
<path d="M2407 2636 c-20 -8 -43 -19 -51 -25 -49 -40 -62 -172 -25 -248 14
-28 48 -65 102 -110 45 -37 90 -73 99 -81 14 -12 20 -10 45 19 15 17 34 38 42
46 12 12 8 20 -25 55 -22 22 -65 60 -96 85 -53 40 -58 47 -58 84 l0 39 80 0
81 0 -3 73 -3 72 -75 2 c-44 2 -91 -3 -113 -11z"/>
<path d="M1931 2486 l-53 -54 79 -79 c93 -92 123 -148 123 -229 0 -98 -16
-130 -113 -231 l-88 -91 50 -51 c28 -28 55 -51 60 -51 5 0 51 45 104 99 148
154 189 261 153 401 -22 86 -57 137 -168 248 l-94 92 -53 -54z"/>
<path d="M2478 1982 c-134 -107 -168 -160 -168 -263 0 -69 20 -119 58 -150 22
-17 38 -19 126 -17 l101 3 3 68 3 67 -49 0 c-87 0 -112 9 -112 40 0 21 21 46
95 117 52 50 95 95 95 100 -1 4 -18 27 -39 51 l-39 42 -74 -58z"/>
<path d="M1457 1985 l-37 -44 100 -92 c87 -82 100 -97 100 -126 l0 -33 -80 0
-80 0 0 -69 0 -70 92 -3 c63 -2 100 1 120 11 85 41 102 203 31 298 -26 36
-185 173 -199 173 -5 -1 -26 -20 -47 -45z"/>
<path d="M6733 3083 c-23 -4 -23 -7 -23 -159 l0 -154 45 0 45 0 0 94 c0 52 3
101 6 110 9 22 41 20 56 -4 7 -11 21 -20 30 -20 10 0 22 9 28 20 6 12 21 20
35 20 32 0 38 -25 34 -135 l-4 -85 45 0 45 0 -5 129 c-5 141 -12 157 -70 181
-26 11 -35 9 -65 -9 -32 -19 -38 -19 -51 -6 -20 19 -68 19 -88 0 -19 -19 -24
-19 -22 1 1 19 -9 23 -41 17z"/>
<path d="M7635 3055 c-25 -24 -25 -24 -25 -240 l0 -215 74 0 73 0 6 83 c9 109
8 250 -2 311 -14 82 -76 112 -126 61z"/>
<path d="M8159 3054 c-23 -25 -24 -32 -29 -211 -5 -197 0 -232 39 -252 35 -19
76 -13 102 15 24 25 24 28 24 226 l0 200 -28 24 c-37 32 -77 31 -108 -2z"/>
<path d="M8669 3051 l-29 -29 0 -211 0 -211 80 0 80 0 0 212 0 212 -27 28
c-34 36 -67 36 -104 -1z"/>
<path d="M3994 2899 c-67 -25 -123 -75 -159 -140 l-30 -54 0 -650 c0 -647 0
-650 22 -690 25 -47 74 -95 123 -121 33 -18 85 -19 1178 -22 l1143 -2 49 21
c27 12 67 41 89 64 73 79 72 70 69 781 l-3 629 -27 51 c-14 27 -45 67 -67 87
-78 70 -20 67 -1240 66 -1062 0 -1098 -1 -1147 -20z m2247 -179 c30 -16 39
-29 39 -56 0 -17 -8 -23 -35 -28 -20 -4 -40 -4 -46 0 -8 4 -10 -11 -7 -50 4
-65 3 -66 -88 -66 l-64 0 0 111 0 112 88 -5 c49 -3 99 -11 113 -18z m-379 -41
c1 -28 1 -53 -1 -55 -2 -2 -424 -4 -938 -4 l-933 0 0 21 c0 30 17 57 48 73 23
13 152 15 924 16 l896 0 4 -51z m-1790 -326 c8 -10 28 -39 43 -65 l27 -48 -81
0 -81 0 0 59 c0 38 4 61 13 64 27 11 65 6 79 -10z m528 -48 l0 -65 -60 0 -60
0 0 59 0 60 43 4 c23 2 50 4 60 5 15 2 17 -7 17 -63z m840 0 l0 -65 -65 0 -65
0 0 59 c0 67 1 68 83 70 l47 1 0 -65z m840 0 l0 -65 -70 0 -70 0 0 59 c0 67 0
67 93 70 l47 1 0 -65z m-1400 -5 l0 -60 -65 0 -65 0 0 60 0 60 65 0 65 0 0
-60z m286 44 c-3 -9 -6 -36 -6 -60 l0 -44 -65 0 -65 0 0 60 0 60 71 0 c61 0
70 -2 65 -16z m544 -44 l0 -60 -60 0 -60 0 0 60 0 60 60 0 60 0 0 -60z m280 0
l0 -60 -65 0 -65 0 0 60 0 60 65 0 65 0 0 -60z m-1752 -254 c17 -30 32 -57 32
-60 0 -3 -63 -6 -140 -6 l-140 0 0 60 0 60 108 0 107 -1 33 -53z m367 -11 l0
-60 -62 -3 -63 -3 0 66 0 66 63 -3 62 -3 0 -60z m275 5 l0 -60 -65 0 -65 0 0
60 0 60 65 0 65 0 0 -60z m280 -5 l0 -66 -62 3 -63 3 -3 49 c-5 72 -1 76 68
76 l60 0 0 -65z m280 5 l0 -60 -65 0 -65 0 0 53 c0 30 3 57 7 60 3 4 33 7 65
7 l58 0 0 -60z m278 -2 l3 -58 -66 0 -65 0 0 60 0 61 63 -3 62 -3 3 -57z m272
-3 l0 -65 -49 0 c-77 0 -81 4 -81 71 l0 59 65 0 65 0 0 -65z m290 0 l0 -66
-67 3 -68 3 -3 63 -3 62 71 0 70 0 0 -65z m-1922 -262 l-3 -68 -182 0 -183 0
0 68 0 67 185 0 186 0 -3 -67z m288 5 c-4 -35 -10 -65 -12 -68 -3 -2 -28 -4
-57 -5 l-52 0 -3 68 -3 67 67 0 67 0 -7 -62z m282 -5 l3 -63 -66 0 -65 0 0 65
0 66 63 -3 62 -3 3 -62z m280 0 l-3 -68 -60 0 -60 0 -3 54 c-5 78 -2 81 68 81
l61 0 -3 -67z m302 2 l0 -65 -70 0 -70 0 0 58 c0 32 3 62 7 65 3 4 35 7 70 7
l63 0 0 -65z m300 -5 l0 -71 -72 3 -73 3 -3 68 -3 67 76 0 75 0 0 -70z m273 6
c-2 -32 -4 -60 -5 -62 -2 -1 -25 -4 -53 -5 l-50 -3 -3 67 -3 68 58 -3 58 -3
-2 -59z m-1833 -301 l0 -75 -130 0 -130 0 0 75 0 75 130 0 130 0 0 -75z m300
0 l0 -76 -67 3 -68 3 -3 59 c-4 84 -3 86 73 86 l65 0 0 -75z m1130 0 l0 -75
-480 0 -480 0 0 75 0 75 480 0 480 0 0 -75z m298 30 c2 -21 1 -54 -3 -72 l-6
-33 -64 0 -65 0 0 75 0 76 68 -3 67 -3 3 -40z m302 -30 l0 -75 -70 0 -70 0 0
75 0 75 70 0 70 0 0 -75z"/>
<path d="M7863 2823 c-9 -3 -13 -37 -13 -119 l0 -114 -170 0 -170 0 0 115 0
116 -66 -3 c-60 -3 -69 -6 -88 -31 -18 -24 -21 -45 -24 -147 -4 -132 5 -162
59 -201 29 -21 44 -22 245 -27 l214 -5 0 -54 c0 -65 20 -107 60 -128 44 -23
557 -22 601 1 38 19 59 68 59 134 l0 50 188 0 c175 0 191 2 232 23 66 33 80
69 80 198 0 94 -3 110 -23 140 -26 39 -85 63 -129 54 l-28 -7 0 -114 0 -114
-165 0 -165 0 0 115 0 116 -86 -3 -85 -3 -6 -115 c-5 -127 -15 -155 -66 -194
-45 -34 -131 -36 -187 -5 -59 33 -74 69 -80 186 -4 73 -9 106 -20 116 -15 15
-144 30 -167 20z"/>
<path d="M3271 2585 c-22 -24 -41 -48 -41 -53 0 -4 30 -36 66 -70 l66 -62 -73
-81 -72 -80 71 -72 c40 -40 72 -75 72 -78 0 -2 -29 -35 -65 -73 -36 -37 -65
-71 -65 -75 1 -6 89 -86 96 -86 7 0 224 219 224 226 0 4 -31 41 -70 82 -38 41
-70 78 -70 82 0 4 32 41 70 83 39 42 70 79 70 82 0 10 -216 220 -227 220 -6 0
-29 -20 -52 -45z"/>
<path d="M6758 2545 c-21 -17 -38 -36 -38 -42 0 -5 43 -51 95 -102 52 -52 95
-97 95 -100 0 -4 -43 -49 -95 -101 -52 -52 -95 -100 -95 -106 0 -12 56 -64 68
-64 4 0 70 60 147 134 l140 133 -35 39 c-20 21 -83 85 -140 140 l-105 102 -37
-33z"/>
<path d="M7351 2254 c-21 -26 -21 -37 -21 -453 0 -423 0 -427 23 -471 13 -26
40 -57 65 -75 l44 -30 727 -3 727 -2 44 23 c30 16 55 40 75 72 l30 48 3 434 3
433 -25 25 c-31 31 -93 34 -126 7 -22 -18 -22 -18 -23 -442 l-2 -425 -690 0
-690 0 -5 423 -5 424 -24 19 c-15 12 -39 19 -66 19 -35 0 -48 -5 -64 -26z"/>
<path d="M7797 2043 c-4 -3 -7 -33 -7 -65 l0 -58 400 0 400 0 0 65 0 65 -393
0 c-217 0 -397 -3 -400 -7z"/>
<path d="M6953 2030 c-12 -5 -29 -20 -38 -34 -47 -72 61 -147 114 -80 34 43
24 86 -26 112 -25 14 -21 14 -50 2z"/>
<path d="M6740 1781 c-6 -12 -10 -95 -10 -200 0 -168 1 -182 20 -201 35 -35
71 -24 90 25 14 36 3 363 -12 383 -17 20 -76 15 -88 -7z"/>
<path d="M7797 1773 c-4 -3 -7 -33 -7 -65 l0 -58 370 -2 c204 -1 382 -2 398
-2 27 -1 27 0 27 64 l0 65 -391 3 c-215 1 -393 -1 -397 -5z"/>
<path d="M6967 1702 c-14 -15 -17 -42 -17 -158 0 -152 9 -184 54 -184 49 0 56
24 56 186 0 103 -4 154 -12 162 -18 18 -63 14 -81 -6z"/>
<path d="M3360 1620 l0 -59 -82 -3 -83 -3 -3 -52 -3 -52 83 -3 83 -3 3 -57 3
-58 49 0 49 0 3 58 3 57 68 3 67 3 0 54 0 55 -71 0 -72 0 6 60 7 60 -55 0 -55
0 0 -60z"/>
</g>
</svg>
